# xmcd CD database file
#
# Track frame offsets:
#	150
#	21997
#	41712
#	60457
#	82692
#	102062
#	122617
#	141572
#	160362
#	177190
#
# Disc length: 2594 seconds
#
# Revision: 2
# Processed by: cddbd v1.5PL3 Copyright (c) Steve Scherf et al.
# Submitted via: CDex 1.51
#
DISCID=7d0a200a
DTITLE=The Street Sliders - BAD INFLUENCE
DYEAR=1995
DGENRE=Rock
TTITLE0=ダイヤモンドをおくれよ
TTITLE1=I Don't Wanna Miss You
TTITLE2=EASY ACTION
TTITLE3=Baby, 途方に暮れてるのさ
TTITLE4=道
TTITLE5=Sunshine Eye Angel
TTITLE6=HOLD ON
TTITLE7=Hyena
TTITLE8=Don't Stop The Beat
TTITLE9=風が強い日
EXTD=YEAR: 1995
EXTT0=
EXTT1=
EXTT2=
EXTT3=
EXTT4=
EXTT5=
EXTT6=
EXTT7=
EXTT8=
EXTT9=
PLAYORDER=
